<svg width="992" height="479" fill="none" xmlns="http://www.w3.org/2000/svg">
  <g opacity=".2">
    <mask id="a" mask-type="alpha" maskUnits="userSpaceOnUse" x="0" y="0" width="992" height="479">
      <path fill="url(#paint0_linear)" d="M0 0h992v479H0z"/>
    </mask>
    <g mask="url(#a)">
      <path fill-rule="evenodd" clip-rule="evenodd" d="M670.4 255a16.8 16.8 0 10-27.7 15.5l-6.3 1c3.5 21.1-4.4 56.3-14 78.2l-.2.3c-10.2 24.3-27.6 38.3-50.9 52-4.2-2-8.8-3.6-13.6-4.8 3.5-3.7 6-7.9 7-12.8 1-3.4 1.7-7 2.3-10.4.6-3.3.9-6.6.7-10l-.1-4v-3.3l-.7-10.5-.7-5.3-.3-2.7.8-.2c.9 0 1.7-.2 2.5-.3l2-.2a15 15 0 003.7-.4c4.2-.8 7.4-3 8.8-7.3.8-2.6 0-5-1.4-7.1a9.2 9.2 0 00-3.6-3.1l-2-1-1.9-1-1.8-1.1c-.7-.7-.8-1.3-.3-2l2.2-3c2.2-2.6 10-16.3 9.9-19.8-.2-3.7-2-6.4-5.5-7.9a20 20 0 00-8.8-1.6c-4 .1-7.8 1.3-10.9 4a7.5 7.5 0 01-4.2 2c-2.4 0-5.5-2.2-8.8-4.7-3.4-2.6-7.2-5.4-10.8-6-4.5-.8-10.8-1.4-16.4 4.2-6 6.2-5.3 11.8-5 14.6l.1.4c.2 1.8-.4 3.1-1.7 4.3l-.2.1-3.5 3.2a15.9 15.9 0 00-4.5 10.4c-.3 2.7 1 5 3.2 6.7l.1.1.3.3a82.3 82.3 0 00-8 14.6c-.7 1.7-1.3 3.4-1.6 5.3a8.6 8.6 0 002 7c1.1 1.2 1 2.6.4 4a33.9 33.9 0 00-3 11.6c-.3 2-.6 4.2-.7 6.2a31.2 31.2 0 00.1 6l.2 2.4.2 2.2a27 27 0 0010.9 19.4 85 85 0 00-12.4 6.1c-18.1-13-31.6-26.7-39-48l-.2-.2c-7.5-20.3-10-59.7-5.2-81.1l-3.4-.8a16.1 16.1 0 10-29.5-6.7l-3.4-.7a215 215 0 006.6 102.2c9.7 27.2 26 45.3 45.7 60.6a138.6 138.6 0 00-19.5 32l-12 45.5H638L624.6 464s-6.3-18.5-21-36.3c22.8-15.2 42-33.4 54.4-62.5 11.6-26.5 21.8-69 16.7-100l-6.3 1c1.8-3.2 2.6-7.1 2-11.1zM505.9 377c-1.6.3-3.5.4-5.9 0a1 1 0 01-.8-1.2c.1-.6.6-1 1.2-.8 3.6.6 6.5 0 8.4-1.6a7.1 7.1 0 002.4-5.7c0-.5.4-1 1-1s1 .5 1 1c0 2.9-1 5.5-3 7.2-1 .8-2.4 1.6-4.3 2zm3.6-38.3a2.3 2.3 0 00-.7 3.7c.9 1 3.2 1 4.1.2.3-.3.6-1 .6-1.5-.1-2.2-2-3.2-4-2.4z" fill="#A3E7FF"/>
      <path d="M661.7 161.1c-.7 1.4-1.8 3-3.6 4a12 12 0 00-3.2 3.2c-.8 1-1.8 2.1-3 3.2l-1.6 1.4c-2 1.8-4.4 4-7.2 5.4-9.5 5-20.4 3.5-25.6-5a38.8 38.8 0 01-3.7-8.4l-.8-2.3a89 89 0 00-1.2-3c-.5-.7-.9-.7-1-.7-.3 0-1 0-1.8 1l-2.8 3.8-.7 1-2.1 3.3-1.1 1.6a85.5 85.5 0 01-5.4 7.1c-3 3.4-7.1 5.8-12 7-2.3.5-4.6.8-6.7.4a10 10 0 01-5.7-3.2 32 32 0 01-5-7.5l-2-4.7a54 54 0 00-1.6-4.2 14 14 0 00-1.5-2.3 17.5 17.5 0 00-6.2 5.3l-1.8 2.7-4 5.3c-1.6 2-3.7 4.3-6.3 6-6.8 4.8-15.6 4.6-20.4-2.1a20.3 20.3 0 01-2.4-4.6l-.8-1.9v-.2a57 57 0 00-.8-1.9l-1.5-3.6v-.3c-.6-1.2-1-2.5-1.6-3.6a4 4 0 00-.8-1.5c-.2-.1-.5-.3-1.3-.4-1.3 0-2 .6-3.4 2.4l-.7.9c-2.7 3.3-5.3 6.5-7.6 9.8-4 6-10.3 8.8-18.5 8.4a22 22 0 01-10.3-2.8c-3-1.8-5-4.2-6.6-7.2-.5-1-1.2-2-2.2-3.2l-1-1.3-.9-1a167.1 167.1 0 00-21 35.5c-4.6 10.7-8.9 21.4-13.1 32l-4.4 11-.8 2.7-.4 1.5c.7 0 1.4.2 2 .3 1.3.3 2.4.5 3.6.5l14.6.4c12.7.3 25.3.7 37.9.5 14.5-.1 29.1-.9 43.7-1.7l6.6-.3c20.8-1.1 41.7-2.3 62.5-3.8 17.2-1.3 34.3-2.8 51.5-4.3l16.3-1.4 3.2-.5 1.5-.3c2.3-3.3 2.9-6.4 2.4-9.8-.5-4-.8-8-1-12.1-.5-16.6-1.9-33.2-5-49.6-.5-2.3-1-4.6-1.7-6.9z" fill="#A3E7FF"/>
      <path d="M467.5 162l1.5-2c1.9-2.6 3.8-5.2 5.9-7.7 19.5-23.3 46.9-38.7 82-45.7 10.3-2 20.9-3.8 31.3-4 18-.3 32.6 5.6 44.6 14.7a92.4 92.4 0 0122 25.2c2.2 3 4.3 5.8 4.9 9.3h-.1a9 9 0 00-1.5 1.7 22.2 22.2 0 00-1.5 3l-.6 1.2c-.5 1.1-1 1.7-1.5 2a18.5 18.5 0 00-4.9 4.6c-.7 1-1.3 1.6-2 2.2l-2.3 2c-1.8 1.6-3.3 3-5.3 4-7.4 3.9-14 2-16.8-2.5-1-1.6-1.5-3.1-2.2-5a95 95 0 00-1-2.6l-.7-1.8a113.4 113.4 0 00-1.7-4 7.8 7.8 0 00-6.6-4.3 9 9 0 00-7.1 3.5 42.8 42.8 0 00-4 5.6l-2 2.8-1.2 1.8c-1.6 2.3-3 4.4-4.9 6.5a16.3 16.3 0 01-12.4 5.2c-.7-.1-1.3-.4-2-1.2a25.5 25.5 0 01-3.9-6l-1.7-4v-.3c-.6-1.4-1.2-3-2-4.4a20.4 20.4 0 00-2.5-4.1l-1-1.4a3.3 3.3 0 00-4-1.2 24.8 24.8 0 00-11.5 8.6l-2.2 3.2c-1 1.6-2 3-3.3 4.4a26.4 26.4 0 01-5 5c-4.7 3.2-9 2.3-11.2-.7-.6-.9-1.2-2-1.7-3.2l-.6-1.7-.1-.2-.9-2.2-1.4-3.5v-.2c-.6-1.3-1-2.6-1.7-3.9-.4-1-1.2-2.5-2.5-3.7a8.3 8.3 0 00-5.6-2c-4.7-.2-7.3 3-8.7 4.7l-.7.9a153 153 0 00-8 10.2c-2.5 3.8-6.4 5.9-12.5 5.6-3.2-.2-5.5-.9-7.3-2-1.7-1-3-2.4-4-4.4a25.5 25.5 0 00-4.3-6l-1.6-2z" fill="#A3E7FF"/>
      <path fill-rule="evenodd" clip-rule="evenodd" d="M743.8 184a14 14 0 011.3 24.5l6.2 1.4-3.3 14.9c-7.1 33 3.4 63 10.3 78.1 4.2 9.3 8.8 16.6 13 22.2a71.6 71.6 0 0123.3-12.4c-3-1.8-5.2-4.3-7-7-3.3-4.6-5-9.3-5-14.5.2-4.2.6-8.4 1.4-12.6.1-.7-.2-1.1-1-1.5a6.3 6.3 0 01-3.5-5.5c-.2-2.4.9-4.5 2.3-6.4 1.8-2.4 4.2-4.8 6.7-7.4 3.1-3.1 6.3-6.4 8.3-9.5.3-.6.7-2.4 1-4.4a41 41 0 01-.7-3.9 787.5 787.5 0 01-19.6-5.9c-3.3-1-3.3-6.2 1.4-5.1 4.8 1 8.6 2.3 11.1 3.1l2.6 1 1.4.5 2 .7 2 .7.1-.3.1-.3a18 18 0 013.6-8.3c2.6-3.7 6.2-6 10.2-8 2.8-1.2 5.8-2 8.9-2.1l4.3-.1a237.6 237.6 0 001.9 0h.2c0-1.3.6-2.4 1.8-3.1 1.2-.7 2.4-.6 3.5 0 1.2.6 1.8 1.7 1.8 3v.8a15 15 0 017.9 3.7c2.2 2 4.4 4 6 6.6 1.6 2.4 2.6 5 3 7.8l1 8-.1 3.4v.2l-.1 1.8c0 .8 0 1.4-.2 2.6l-.3 1.4-.2.6-1.1 1v1.5c.3 1.6 3.5 6 5.2 8.3.5.7 1 1.2 1 1.5l5.7 8.6c1.8 2.6 2.7 5.5 3.3 8.6.5 2.7.6 14.3-5.5 24a11.3 11.3 0 01-5.8 5.1 16 16 0 01-9.3-.7c-1.6-.6-2.9-1.7-3.9-3l-.7.5-2.1 1.7a26 26 0 01-3.6 2.8 76.3 76.3 0 0128.5 16.5 127.4 127.4 0 0043.6-74.8l2.3-15.1 5.7.9a14 14 0 1118.6 2.9l5.9.9-2.4 15c-6.5 42.6-32.3 72.9-47.1 87.1-2.3 2.2-4.6 4.4-7.1 6.5a92.3 92.3 0 015.7 10.5l24.1 72.9-178.9 15.4-2.3-55.8L737 376s4-13.2 13.6-27.8c-7.8-9.5-14.6-21-19.5-31.7-8.7-18.6-22-56.1-12.8-98.2l3.3-15 5 1.2a14 14 0 0117.3-20.5zm55 80.8c0 .4.6.9 1 1l.5.2c.4 0 .8 0 1.2-.2 1-.3 1.8-1 2-1.6.7-1.5-.4-3.2-2-3.2s-2.8 1-3 2.3l.2 1.5zm-12.2 31c8.4.2 12.3-3 14-5.5a8.5 8.5 0 001.5-3l.1-.3c.2-.2.5-.3.8-.3a.8.8 0 01.7 1s-.5 2.3-2.6 4.7c-1.7 2-4.5 3.9-9 4.7-1.7.3-3.5.4-5.6.3a.8.8 0 01-.6-.2.9.9 0 01-.2-.6c0-.5.4-.9.9-.9z" fill="#A3E7FF"/>
      <path fill-rule="evenodd" clip-rule="evenodd" d="M885.5 164.7c3.8-.9 8.3-3.4 8.8-8.3.2-1.6-.2-4-.6-5.6-.7-2.4-3.1-5.6-8.2-7-3.2-.8-6-.6-8.7 1.4l-.2.2c-3.1 2.5-5.3 5-5 10.9 0 .7.3 1.5.6 2.2l.2.7a8.3 8.3 0 002.3 3.5l-64.2-12.2c3.2-1 6.3-2.6 7.4-5.5a20 20 0 001.4-4.5c.9-3.8-1-6.5-3.4-9a7.8 7.8 0 00-7-2.1h-.9l-.5.2c-2 .2-3.9.4-5.6 1.1-4.3 1.7-6.8 8-6.2 11.7.3 1.5.8 3 1.6 4.3.3.6.8 1 1.2 1.5l-73.8-14-8 44.4 231.7 43.2 7-43.8-70-13.3zm-149.6.6l15.8 2.8 1-5.2h-.1l-15.8-3-1 5.4zm36.8 6.6l15.8 2.9 1-5.3-15.8-2.9-1 5.3zm36.9 6.7l15.8 2.8.9-5.2v-.1l-15.8-2.8-1 5.2zm52.6 9.5l1-5.3-15.8-2.9-1 5.3 15.8 2.9zm36.8 6.6l1-5.3-15.8-2.8-1 5.3 15.8 2.8zm21.1 3.8l15.8 2.8 1-5.2-15.9-3-.9 5.3v.1z" fill="#A3E7FF"/>
      <path fill-rule="evenodd" clip-rule="evenodd" d="M792.7 140.2l-1-.2-2.7-.5c-2.2-.5-4.3-1-6.4-1.3a999.5 999.5 0 00-17.9-3l-6.3-1.2c-.9-.1-1.7-.5-2.5-.9l-1.1-.5a888.5 888.5 0 00.9-5.5v-.1a163.9 163.9 0 001.6-5.5l1.8-6c.5-1.7 1.6-2.8 3.5-2.6l2.2.2c2.7.3 5.3.6 7.9 1.1l3.7.9c3.3.8 6.7 1.7 10.2 1.5h.5c2.1 0 4.2-.1 5.7-2l2.9-4 19.9 3.7 3.7-19-6.9-1.3c7-3.4 16.1-6.2 23.6-8 4.6-1 9.2-.6 13.8-.2h2.2l11.5 1.5h.2l.4.4 2.6.5 4.3 1c7.1 2 13.7 4.8 19.7 9 3.2 2.4 6 5 8 8.1l-7.8-1-3 21.6 18 3 .4 2.9c.4 2 1.5 3.3 3.5 3.7l20.7 3.3 4 .7c1 .1 2 .4 3 .7 2.7 1 3.3 1.9 3.7 4.4v2.9l-.2 1.5a242 242 0 00-.7 3.8 20 20 0 00-.7 2.5c-.6 3-2 4.3-5.8 3.9-2.9-.4-32.5-3-36.1-3.2v-.2c.2-2-.3-5.4-.9-7.4-.8-3.1-4-7.4-10.6-9-4.1-1.2-7.8-.9-11.2 1.7l-.3.2c-3.7 3-6.4 6.1-6.5 12.7h-.9l-.2-.2c-.2 0-.4 0-.6-.2l-1.8-.6a494 494 0 00-24-4.4l-7.6-1.2-2-.3-.2-.1-.5-.2c-1-.1-1.8-.4-2.8-.6-2-.6-4.2-1.1-6.4-.4l-.5-.2.2-.3a26.9 26.9 0 001.7-6c1.2-4.9-1.3-8.5-4.3-11.7a9.7 9.7 0 00-8.8-2.8l-1.8.2c-2.5.4-5 .7-7.2 1.6-4.5 1.8-7.5 8-7.8 12.6zM773 125.6a3.9 3.9 0 10-7.7-1 3.9 3.9 0 007.7 1zm78.1-25.9l-24.2-3-3.3 20.1 25.3 4 2.2-21.1zm6.7.4l24.3 3-2.2 21-25.3-3.9 3.2-20zM310.8 204a12 12 0 00-2.3 23.3l-11.3 1.1c1.8 18.4-4.4 51-12.8 67.2v.3c-10.5 20.9-27.3 31.3-49.7 42.1-3.4-1.5-7-2.8-10.8-3.7 2.7-1.8 4.6-4.2 6.3-6.8a22 22 0 003.6-13.1c-.2-3.8-.7-7.6-1.5-11.3-.1-.7.1-1 .7-1.4 2-1.2 2.9-2.9 3-5 0-2.1-1-4-2.3-5.7a164 164 0 01-10-14.7l-2-2.9-.1-.2-1.5-1.9-3-3.9.6-.6c1-1 1.2-2 .6-3l-1-1.5a42 42 0 00-29.9-9.7c-2.3.2-4.4.7-6.3 1.5l-3.2-2.9a1.5 1.5 0 10-2 2.3l2.4 2.1a18.5 18.5 0 00-5.8 6.3 81 81 0 00-8.8 28.2c-.4 3 1.4 5.1 4.4 5.2h.2v.4c-1 5.3-1.6 10.6-1.2 15.9v.9c.3 2.7.5 5.5 1.1 8.1.9 3.3 2.2 6.5 3.6 9.7.6 1.5 1.8 2.1 3.3 1.4l3.5-1.5 1.7-.6a33.8 33.8 0 011.6-.7l.3-.1.9.8 2 1.6 1.8 1.5c1.4 1.1 2.8 2.1 4.3 3a57.4 57.4 0 00-17.7 9.7c-18.7-6.8-33.4-15.1-44.6-31.5l-.1-.2a151 151 0 01-21.7-64.9l-11.4.4a12 12 0 10-9.2.4l-10.7.3a181 181 0 0027.3 81.8c13.8 20 30.9 31.2 50.2 39.4a94.98 94.98 0 00-7.6 20.3l-5.7 50.2 154.6-3.2L275 376s-4.3-8-12.5-17c20.4-11.3 37.8-25.2 49.8-49a180.9 180.9 0 0016-84.7l-10.6 1a12 12 0 00-7-22.3zm-77.5 110.5l.1-.5c0-.3-.3-.6-.6-.6-2.9.2-5.3-2-5.4-4.8 0-.4-.3-.7-.7-.6-.3 0-.6.3-.6.6a6.4 6.4 0 006.7 6.1l.5-.2zm-14.6-28.8a2 2 0 013.3.8c.4 1-.3 3-1.4 3.4-.4.2-1 .2-1.4 0-1.8-1-2-2.9-.5-4.2zm764.8 22l.3.2a20 20 0 017.1 15.8 18 18 0 01-2.7 10.4c-1.1 2-2.3 4-3.7 6a22.4 22.4 0 01-10.3 7.6c2 3.4 3.3 7.4 3 10.8.3 3.7-.9 7.2-2.7 10.5-1.2 2-2.4 4-3.8 5.8a21.3 21.3 0 01-23.2 8l-10.3 26.6-9-3.5 10.2-26c-9.1-5.6-14-15.7-12.2-23.4 1-4.7 3.5-8.9 6.5-12.8 2.8-3.6 6.4-5.8 10.6-7.3-3-4.8-4.4-10.2-3.3-14.7 1-4.7 3.5-9 6.5-12.8 3-4 7.2-6.3 11.9-7.7 12.9-3.5 22.7 4.6 25 6.5zm-36.2 75.1zm-294.6 7.8c-2-5.2-2.5-10.8-3.6-16.2-.2-1 0-2 0-3 .4-2 1.4-3.7 3.5-4.3a5 5 0 015.7 1.6l5.9 6.9c.7-2.2 1.1-4 1.8-5.7 1-3 1.9-6.3 5.5-6.8 3.4-.5 5.3 2 7.1 4.4 1.6 2 3 4.2 5.2 7.2.7-3.3.9-5.7 1.7-8 1-2.7 2-5.5 3.8-7.7 2-2.6 4.7-2.5 7.4-.6.8.6 1.5 1.3 2.1 2 5.6 7.7 7.7 16.1 5.7 25.4-1 4.3-3.5 7.7-7 10.4a44 44 0 01-13.9 7c-11.6 2.8-26.3-.3-31-12.6z" fill="#A3E7FF"/>
      <path d="M472.2 78.2l.5-4.5a61.8 61.8 0 011.7 0h.6c1.6.2 3.1.3 4.7.2a2054 2054 0 0033-1.2h.9l1.2-.3 1.3-.3c1.4 0 2-.9 2.1-2.1v-.2c.4-4.4-.2-8.8-1.9-12.9-1-2.3-3-3.5-5.4-4h-.2c-2.6-.6-5.2-1.2-7.9-1.2l-14.5.3-6.8.2-.7-.2h-.4c3.5-4.7 8.5-6.8 14-8 3.2-.7 6.5-1 9.8-1.4 19.6-2 39.3-3.8 58.9-5.7L575 36a563 563 0 0012.7-1h.7c10.3-1 20.7-2 31-2 6 0 11.7 1.1 17.2 3 4.7 1.7 8.4 4.6 11.1 8.8 1.4 2.2 2.7 4.6 3.6 7l6.5 18.7v.1l1.8 5.3c.4 1 .7 2 .8 3 .5 4.6-.9 8.4-6.4 9l-10 1.6-5 .8c-2.4-6-6-11.1-11.9-14.4a15.3 15.3 0 00-16.6.3 19.7 19.7 0 00-9.5 19.1l-7.2 1c-5.2.8-10.4 1.5-15.7 2-11.4 1.2-22.7 2.2-34.1 3.1l-13.1 1.2c.1-3.3-1.3-6.2-3-8.7-2.5-4-5.6-7.6-10.6-8.5-5.4-1-10 .2-13.7 4.4-2.6 3-4.9 6.1-5.6 10a58.2 58.2 0 00-.2 4.6v.6l.1.6a197.1 197.1 0 00-6.4.5c-5 .1-10.1.3-15.2.3-2.4 0-3.5-.7-3.9-2.7-.4-2-.6-4-.8-6l-.3-2.4a26 26 0 009.6-1.7l1-.3c2.3-.8 4-2.5 4.1-5.1.2-2.5-1.1-4.3-3.1-5.6a15.4 15.4 0 00-11-2l.3-2.4zm-66.3-6.6c-4.4-5-8.7-9.8-11.8-15.5 1.6-2.1 3.2-1.5 4.6-.9l.7.3 13.8 5.2 24.1 9.1 10.5 3.9a1652.7 1652.7 0 017.3 2.6c1.2.5 2.5 1 2.6 2.8.3 6.9.8 13.8 1.3 20.7.1 1.6-.5 2.7-2 3.5l-1.5.8-1.2.7-48 25.2c-1.7.9-3.5 1.6-5.4 2.2-2.7.9-3.7.5-5.1-1.6-1.5-2.2-1.6-3.3 0-5.4l3-4a164 164 0 006-7.6l6.6-8.2c-5.4-3.3-11-6.2-16.6-9-6.9-3.6-13.8-7.2-20.6-11.7l1.9-.8c.9-.4 1.5-.7 2.2-.8l18-2.2 12-1.4c.7 0 1.5-.2 2.4-.4l1.3-.4-6.1-7.1z" fill="#A3E7FF"/>
      <path d="M634.7 90.7a20.6 20.6 0 00-9-11 11.5 11.5 0 00-12.7.2 15.2 15.2 0 00-7.1 14.8l1.4 2.2 3.1 4.7c3.7 4.7 8.7 6.6 14.6 5.7 5.5-1 9.8-6 10-11.6l-.2-3.3-.1-1.7zm-109.4 4.7a12 12 0 012.4 7.2v.6a130 130 0 01-.8 3.4 11 11 0 01-4.6 6.8c-4.5 3-11.3 2.6-15.2-1.1-1.5-1.5-3-3.2-4.3-4.8l-2.1-2.4v-.8l-.1-1.8c0-4.2 2.1-7.4 4.7-10.5 3.1-3.4 6.9-4.4 11.3-3.6 4.1.8 6.6 3.8 8.7 7zM68 335.3l-1-1-1.6-1.7-2-1.8-6.2-6-3.5-3c-2.5-2-5-4.1-7.1-6.5l-.6-.6-.3-.3 8.8-2.9 3-1c2.3-.7 2.4-1.5.8-3.1l-1.1-1.2-1.6-1.5-2.2-2.1-6-5.7-3.4-3a64 64 0 01-7.2-6.6 54 54 0 00-9.2-7.9 3 3 0 00-2.1-.5c-1.6.1-2.7 1-3.3 2.5l-.2.4-.6 1.6a46 46 0 00-1.5 7.4 346.7 346.7 0 00-4 28.6c0 1.2-.2 2.4-.4 3.6v1.6l2.6-.8 5.1-1.4 6-2h.3a358 358 0 01-1.9 12.2l-.8 6.6-.5 4-.5 3.9-.5 3.9v1.5a404.7 404.7 0 017.7-2.2l5.9-1.8.4-.1-1 6-.9 6.1a225 225 0 00-.8 6.6l-.5 4-.5 3.9-.5 4v1.5l2.7-.8 5-1.4 7-2.3 2-.5 9.6 27.6L73 399l-9.8-28 2-.7 9.6-3.2 2.3-.8c2.2-.7 2.4-1.5.8-3.1l-1.1-1.1a65 65 0 00-3.7-3.7l-6-5.7-3.6-3a79.9 79.9 0 01-7.8-7.2l-.2-.2 9.4-3.1 2.4-.8c2.2-.8 2.4-1.5.8-3.2zm269 23.4c-5-3.8-8-9-9.7-15-1-3.4-1.7-6.8-1-10.4.5-3.5 2-6.5 4.5-9 1.5-1.7 3.5-2.3 5.6-2.8 1.5-.3 2.5.3 3 1.9a278.6 278.6 0 01.7 7.8l.1 5.1c0 1.5.2 3 .6 4.5.2.7.6 1.4 1 2 0 .4.2.6.4 1 1.9-.2 2.2-1.4 2.5-2.6l2.5-10.2c.6-2.5 1.8-4.5 3.5-6.3.5-.6 1-1.1 1.7-1.5 2.5-1.4 5.2-.3 6 2.5.4 1.5.5 3.1.6 4.7l.4 6.5.5 7.2c0 1 .3 2.2.8 3.3.6 1.4 1.8 1.7 3.2 1a5.9 5.9 0 002.8-3.2c.6-1.2 1-2.4 1.5-3.7l3-7c.8-1.7 1.7-3.4 3-4.8 2.5-3 5.6-2.6 7.3 1 1 2.3 1.2 4.7 1 7.2l-.3 4.8-.2 3.8c-.2 2.4-.2 2.6 1 4.2a6 6 0 003.9-3.1l2.3-4.4 1.2-2.3a9.6 9.6 0 016.3-5.2c2.3-.6 3.5 0 4.4 2.3 1 2.7 1 5.4.9 8.2v.2c-.2 4.3-1 8.4-2.9 12.4a17 17 0 01-4.3 5.7 29.2 29.2 0 01-11.4 7l-.2.1s-8.6.6-20.6-2l-.4 1.3v.4a232 232 0 00-6.5 25.6c-.3 1.3-.3 4-.2 7 .1 4.6.2 9.8-1 11.1-1.7 1.8-7.1.9-9.6.4h-.3c0-9.3.5-18.2 2.4-26.9a10.8 10.8 0 11.4-1.8 85 85 0 017-19.4 69.6 69.6 0 01-17.4-8.6zM673 57.8c4.8-.8 10-1.4 14.8-.2 5 1.4 7.9 5.6 8.8 10.5.9 4.3-1.5 9.3-4.4 12.3-3 3-7 2.5-8.5-1.7-1.5-4 6.3-7.2 8.9-8.1 6-2.1 13-2.5 18.8.2 14 6.6 13.8 30.8.5 38-4 2-9 1.5-8.9-4 .3-8.5 8.3-15.8 15.3-19.5 11.8-6 28.5-5.3 36.5 6.4.6 1 2.3 0 1.6-1-10.2-14.9-32.2-13.3-45.1-3-5.2 4-11 11.8-10 18.9.6 4.6 4.9 6 9 4.9 5.6-1.6 9.6-6.7 11.7-12 3-7.4 2.1-16.9-2.1-23.7-7-11-23-10.7-33.1-4.6-2.6 1.6-6.1 4.7-5 8.2 1 2.3 3.2 4.8 5.7 5 3.1.3 5.7-2 7.4-4.3 4.6-6.3 5-14.6-.3-20.6-5.4-6-15.1-4.7-22.2-3.5-1.2.2-.7 2 .5 1.8zM344.1 164c-1.4 0-3-.3-3.9-1.4l-1-1.5c0-.1 0-.3-.2-.4-.9-1.6-.5-3.1.2-4.6a3.2 3.2 0 012.5-2h.6c.8-.3 1.6-.4 2.4-.3 2 .1 3.9 2.7 4.1 4.4v2.3c-.4 2-2.9 3.5-4.7 3.5zm-91.5 9.7c-1.4 0-2.9-.2-3.7-1.3l-1-1.5-.1-.3c-.9-1.5-.5-3 0-4.4a3 3 0 012.4-1.8l.6-.2c.8-.1 1.6-.3 2.3-.2 1.9.2 3.7 2.6 4 4.2l-.1 2.2c-.3 1.9-2.7 3.3-4.4 3.3zm-41.2 2.6c.8 1 2.3 1.4 3.6 1.3 1.6 0 3.9-1.4 4.2-3.2v-2c-.2-1.6-2-4-3.7-4a8 8 0 00-2.2.1l-.6.2a3 3 0 00-2.3 1.7c-.5 1.4-.9 2.8 0 4.2l.2.4.8 1.3zm-74.7 10c-1.4 0-2.8-.3-3.6-1.4l-1-1.3c0-.1 0-.3-.2-.4-.8-1.5-.4-3 .1-4.3a3 3 0 012.4-1.8l.6-.1c.7-.2 1.5-.3 2.2-.2 1.8.1 3.6 2.5 3.8 4.1v2c-.3 2-2.7 3.4-4.3 3.4zM96.8 189c.9 1.1 2.4 1.4 3.8 1.4 1.7 0 4.1-1.5 4.5-3.4v-2.2c-.2-1.7-2-4.1-4-4.3l-2.3.3h-.6a3 3 0 00-2.4 2c-.6 1.4-1 2.9-.1 4.4l.2.4c.2.3.3.6 1 1.4zm-74.5 10.1c-1.4 0-3-.2-3.9-1.4a10 10 0 01-1.2-2c-.9-1.5-.5-3 .1-4.5a3.2 3.2 0 012.5-2h.7c.8-.2 1.6-.4 2.4-.3 2 .1 3.8 2.7 4 4.4.2.8.2 1.6 0 2.3-.3 2-2.8 3.5-4.6 3.5z" fill="#A3E7FF"/>
      <path fill-rule="evenodd" clip-rule="evenodd" d="M249.8 118.3L237 120c-3.2.5-3.4 4.2-3.3 5.1l.5 5.7a312 312 0 002.6 23.3 6.3 6.3 0 006.1 5.5c8.4-.6 17-1.6 25.1-2.7l12.4-1.4L305 153l20.3-2 1.7-.2c9.4-1 34.9-3.5 37.7-8.1 6.1-9.8-6.6-15.6-16.3-20-3-1.3-5.5-2.5-7.3-3.6a48 48 0 00-19.3-8c-5.6-.8-14.6.2-19.7.8l-3.3.3-15.3 2c-9.1 1.2-20.4 2.7-28.3 3.6l-5.3.5zm105.7 15.4a3.9 3.9 0 00.8 7.8 3.9 3.9 0 00-.8-7.8zm-21-18.3a89 89 0 016.5 3.7c1.8 1.1 4.4 2.3 7.3 3.6l5.4 2.6-48 5.2-.6-12.7 29.5-2.4zm-32.8 16.5l-61 5.7v-12.8l59.5-5.5 1.5 12.6zm-72.3 18.8l.1.9.2 2 .1.7c.7 6.1-7.2 7.5-12.6 8.1l-15.7 2-10.3 1.2c-8.9.5-17.7 1.5-26.5 2.5l-16.2 1.7c-7.5.8-13.4 1.4-21 2.4-5.4.7-5.8-5.2-6-9.3l-.2-1.4a70 70 0 00-1-6.2c-1.6-7.8-3.7-18.5.4-21.4 2.6-1.9 7-2.1 11.3-2.3 2.4-.1 4.8-.2 6.6-.7 4.8-1.2 9.4-1.5 14.2-1.9l6.7-.6 8.5-1c16.5-2 44-5.2 49-5 2.6 0 5.7.1 7.3 2.3.4.5 4.3 18.1 4.9 24l.2 2zm-54-5.5l46.2-4.6-2.4-12.5-43.8 4.3v12.8zm-49.7 5.9l45.2-5.4-.4-12.7-46.9 5.6 2.1 12.5zM6.5 175.5v.7l.3 2.5v.3c.7 6 8.6 5.8 14 5.2l10-1 14-1.7c8.7-1.3 17.5-2.2 26.3-3.2 5.5-.5 10.9-1.1 16.3-1.8 7.4-1 15.2-1.8 22.8-2.4 5.5-.5 4.6-6.4 4-10.4l-.2-1.4c-.2-1-.3-2.5-.4-4.1-.7-7.8-1.8-20.6-6.9-22.8-3.6-1.6-21.1.7-32 2.1l-7 1a943.3 943.3 0 00-57.5 6.5c-2.4.5-5.5 1.3-6.6 3.8-.2.4 1 10.5 1.9 18l.7 6.6.3 2zm55.6-18l44.4-4.3-2.5-12.5-43.7 4.3 1.8 12.6zm-50.6 6l46-5.4-2.1-12.6-46 5.5 2 12.6z" fill="#A3E7FF"/>
      <path d="M344.3 165.5c-1.9 0-4-.4-5-1.9-.9-1.1-1-1.4-1.3-1.9l-.3-.5-.6-1.5-78.3 8.6a9 9 0 010 2.6c-.5 2.6-3.8 4.5-6 4.6-2 0-4-.4-5-1.9-1-1.1-1-1.4-1.3-2l-.3-.4-.6-1.5-6.6.7-17.8 2v2.6c-.5 2.6-3.8 4.5-6 4.6-2 0-4-.4-5-1.9a13.3 13.3 0 01-2.2-3.9l-65 7.2v2.6c-.5 2.6-3.8 4.6-6 4.6-2 0-4-.3-5-1.8a14 14 0 01-1.3-2l-.3-.5-.6-1.4-22.9 2.5a9 9 0 010 2.6c-.5 2.6-3.8 4.5-6 4.6-2 0-4-.4-5-1.9-1-1.1-1-1.4-1.3-1.9l-.3-.5-.6-1.5-65.1 7.1v2.6c-.5 2.6-3.8 4.6-6 4.6-2 0-4-.3-5-1.9-1-1.1-1-1.4-1.3-1.9l-.3-.5-.6-1.4L1 196.4c2.2 31.1 37 56.4 68.4 36.3 15.5-10 29.4-7.3 43.3 2.7l5.6 3.8a56.9 56.9 0 0056.4 5.2c6.5-2.7 12.7-6.2 18.9-9.6l1.8-1c17.9-10 37-15.1 57.6-14.4 13.2.5 25.7-2 37.4-8.2 15-7.9 31.2-10 48-9.3l6.7.4c5.5.3 11 .5 16.5.5 12.1 0 21.3-6.5 24.5-16.8 3-9.8-1.5-25-9.7-30.5l-5.7.6-20.4 2.2v2.6c-.5 2.6-3.7 4.5-6 4.6z" fill="#A3E7FF"/>
      <path d="M789 139.5h0c-2.2-.5-4.3-1-6.4-1.3a999.5 999.5 0 00-17.9-3h0l-6.3-1.2c-.9-.1-1.7-.5-2.5-.9h0l-1.1-.5a888.5 888.5 0 00.9-5.5m33.2 12.4h0m0 0s0 0 0 0m152.4 8v-2c-.5-2.4-1-3.4-3.8-4.3-1-.3-2-.6-3-.7l-4-.7h0m10.8 7.8h0m0 0s0 0 0 0m-10.8-7.8h0m0 0s0 0 0 0m-24.6-10l.4 3c.4 2 1.5 3.3 3.5 3.7l20.7 3.3m-24.6-10l-18-2.9 3-21.5 7.9.9m7.1 23.6c0-8.5-4.8-19.3-7.1-23.6m0 0a34 34 0 00-8.1-8c-6-4.3-12.6-7.2-19.7-9a158.7 158.7 0 01-7.4-1.8v-.2a3076.9 3076.9 0 00-12.1-1.5h-1.7c-4.6-.4-9.2-.8-13.8.2-7.5 1.8-16.6 4.6-23.6 8m0 0l7 1.3-3.8 19-20-3.8-2.8 4.1M812.4 94c-7 3.9-16.3 15.4-19.6 20.6m0 0c-1.5 1.9-3.6 2-5.7 2h0-.5c-3.5.2-6.9-.7-10.2-1.5l-3.7-.9c-2.6-.5-5.2-.8-7.9-1h0c-.7-.2-1.4-.2-2.2-.3-1.9-.2-3 1-3.5 2.6l-1.8 6h0a295 295 0 01-1.6 5.5m0 0h0m0 0s0 0 0 0m33.3 12.5l2.8.5.9.2c.3-4.7 3.3-10.8 7.8-12.6 2.3-1 4.7-1.2 7.2-1.6h0l1.8-.2c3.3-.5 6.5.3 8.8 2.8 3 3.2 5.5 6.8 4.3 11.7l-.3 1.3a26.9 26.9 0 01-1.6 5l.5.2c2.2-.7 4.3-.2 6.4.4l2.8.6.4.1h.1l.3.2 2 .3h0a759 759 0 0133.3 6.2h0l.6.2.2.1h.1l.8.1c.1-6.6 2.8-9.6 6.5-12.7l.3-.2c3.4-2.6 7-2.9 11.2-1.8 6.6 1.7 9.8 6 10.6 9.1a23.3 23.3 0 01.8 7.6h0c3.7.2 33.3 2.8 36.2 3.2 3.9.4 5.2-.9 5.8-4 .1-.8.4-1.6.7-2.4h0l.4-1.2.3-2.6h0a398 398 0 00.3-2.4m-3 232.2l-10 26 9 3.6 10.2-26.5c9.1 2.3 17.4-.6 23.2-8 1.4-1.9 2.6-4 3.8-6 1.8-3.2 3-6.7 2.6-10.4.4-3.4-.8-7.4-2.9-10.8 4-1.4 7.4-4 10.3-7.7 1.4-1.8 2.6-3.8 3.7-5.9a18 18 0 002.7-10.4 20 20 0 00-7.1-15.8l-.3-.2c-2.4-2-12.2-10-25.1-6.5a22.4 22.4 0 00-12 7.7 34 34 0 00-6.4 12.8c-1 4.5.2 10 3.3 14.7a21.7 21.7 0 00-10.6 7.3c-3 3.9-5.4 8.1-6.5 12.8-1.8 7.7 3 17.8 12.2 23.3zm0 0l.3.2m-466-306.3c0 1.5-.2 3-.4 4.5l-.3 2.4m.8-7a61.8 61.8 0 011.7.1h.6c1.6.2 3.1.3 4.7.2a2054 2054 0 0033-1.2h.9l1.2-.3 1.3-.3c1.4 0 2-.9 2.1-2.1v-.2c.4-4.4-.2-8.8-1.9-12.9-1-2.3-3-3.5-5.4-4h-.2c-2.6-.6-5.2-1.2-7.9-1.2l-14.5.3h0l-6.8.2-.7-.2h-.4m-7.7 21.7a77 77 0 017.7-21.8m0 0c3.5-4.6 8.5-6.7 14-7.9 3.2-.7 6.5-1 9.8-1.4 19.6-2 39.3-3.8 58.9-5.7L575 36a563 563 0 0012.7-1h.7c10.3-1 20.7-2 31-2 6 0 11.7 1.1 17.2 3 4.7 1.7 8.4 4.6 11.1 8.8 1.4 2.2 2.7 4.6 3.6 7l6.5 18.7h0v.1l1.8 5.3c.4 1 .7 2 .8 3 .5 4.6-.9 8.4-6.4 9l-10 1.6-5 .8c-2.4-6-6-11.1-11.9-14.4a15.3 15.3 0 00-16.6.3 19.7 19.7 0 00-9.5 19.1l-7.2 1c-5.2.8-10.4 1.5-15.7 2-11.4 1.2-22.7 2.2-34.1 3.1h0l-13.1 1.2c.1-3.3-1.3-6.2-3-8.7-2.5-4-5.6-7.6-10.6-8.5-5.4-1-10 .2-13.7 4.4-2.6 3-4.9 6.1-5.6 10a58.2 58.2 0 00-.2 4.6v.6l.1.6a197.1 197.1 0 00-6.4.5c-5 .1-10.1.3-15.2.3-2.4 0-3.5-.7-3.9-2.7-.4-2-.6-4-.8-6l-.3-2.4m0 0a26 26 0 009.6-1.7h0l1-.3c2.3-.8 4-2.5 4.1-5.1.2-2.5-1.1-4.3-3.1-5.6a15.4 15.4 0 00-11-2m-.6 14.7c0-2.6 0-9.2.6-14.7M65 339.3h0l-9.4 3.1.2.2.7.6c2.2 2.4 4.6 4.5 7.1 6.6l3.5 3a173 173 0 019.8 9.4h0l1 1c1.7 1.7 1.5 2.5-.7 3.2l-2.3.8-9.7 3.2-1.9.7L73 399l-11.6 4-9.6-27.5-2 .6-7 2.2-5 1.4-2.7.8V379l.5-4 .5-3.8.5-4.1a225 225 0 012.7-18.8l-.4.2-5.9 1.8a178.5 178.5 0 01-7.7 2.2V351l.5-4 .5-3.8.5-4 .8-6.6a347.8 347.8 0 011.9-12.2h-.2l-6 2-5.2 1.4M65 339.3h0m0 0s0 0 0 0m-46.8-15.5h0m0 0s0 0 0 0m36.4-12.3h0m0 0h0m0 0s0 0 0 0m0 0s0 0 0 0m0 0l-8.8 3 .3.2h0l.6.6c2.2 2.4 4.6 4.5 7.1 6.5l3.5 3 6.3 6h0l2 1.8 1.5 1.6h0l1 1.1c1.7 1.7 1.5 2.4-.7 3.2l-2.3.7m-10.5-27.7l3-1c2.3-.7 2.4-1.5.8-3.1l-1.1-1.2h0l-1.6-1.5-2.2-2.1-6-5.7-3.4-3a64 64 0 01-7.2-6.6 54 54 0 00-9.2-7.9 3 3 0 00-2.1-.5c-1.6.1-2.7 1-3.3 2.5l-.2.4-.6 1.6a46 46 0 00-1.5 7.4 346.7 346.7 0 00-4 28.6c0 1.2-.2 2.4-.4 3.6v1.6l2.6-.8m330.2-201c9.7 4.3 22.4 10 16.3 19.9-2.8 4.6-28.3 7.2-37.7 8.1l-1.7.2-20.3 2h0l-24.5 2.4-12.4 1.4c-8.2 1-16.7 2.1-25 2.7a6.3 6.3 0 01-6.2-5.5 312 312 0 01-3.1-29c-.1-.9.1-4.6 3.3-5.1 4.3-.7 8.5-1.1 12.8-1.6l5.3-.5 28.3-3.6 15.3-2 3.3-.3c5.1-.6 14.1-1.6 19.7-.8a48 48 0 0119.3 8m7.3 3.6c-3-1.3-5.5-2.5-7.3-3.6m7.3 3.6l5.4 2.6-48 5.2-.6-12.7 29.5-2.4a89 89 0 016.4 3.7m310 122.1a16.8 16.8 0 0117.4 25l6.3-1c5 31-5.1 73.5-16.8 100-12.2 29.1-31.5 47.3-54.4 62.5a130.4 130.4 0 0121.1 36.3l13.5 45.4H436.3l12.1-45.4s6.3-15.7 19.5-32.1a128.6 128.6 0 01-45.7-60.6 215 215 0 01-6.6-102.2l3.4.7a16.1 16.1 0 1129.5 6.7l3.4.8a179.5 179.5 0 005.2 81.1l.1.3c7.5 21.2 21 35 39 48a85 85 0 0112.5-6.2c-3.8-2.4-6.5-6-8.4-10a27 27 0 01-2.7-11.6h0l-.2-2.4v-1.2c-.2-1.6-.3-3.2-.1-4.8.1-2 .4-4.1.7-6.2l.4-2.5c.4-3.2 1.3-6.2 2.6-9.1.6-1.4.7-2.8-.4-4l-.7-1a8.6 8.6 0 01-1.3-6c.3-1.9 1-3.6 1.7-5.3 2.2-5.1 4.7-10 8-14.6l-.4-.3h-.1a7.4 7.4 0 01-3.2-6.8c.3-4 1.6-7.5 4.5-10.4l3.5-3.2.2-.1c1.3-1.2 2-2.5 1.7-4.3v-.4c-.4-2.8-1.2-8.4 5-14.6 5.5-5.6 11.8-5 16.4-4.2a29 29 0 0110.7 6c3.3 2.5 6.4 4.7 8.8 4.7 1.7-.1 3-1 4.2-2 3.1-2.7 6.9-3.9 10.9-4 3-.2 6 .4 8.8 1.6a8.4 8.4 0 015.5 8 64.8 64.8 0 01-12 22.6c-.6.8-.5 1.4.2 2 .6.5 1.2 1 1.8 1.3l2 1 2 .9c1.4.7 2.6 1.7 3.5 3 1.5 2.2 2.2 4.6 1.4 7.2-1.4 4.2-4.6 6.5-8.8 7.3-1.2.3-2.4.3-3.7.4l-2 .2-2.4.3h0l-1 .2.4 2.7h0l.7 5.3a264.5 264.5 0 01.7 13.9v4c.3 3.3 0 6.6-.6 9.9-.6 3.5-1.4 7-2.2 10.4-1.2 5-3.6 9.1-7 12.8 4.7 1.2 9.3 2.8 13.5 4.8 23.3-13.7 40.7-27.7 51-52v-.3c9.7-21.9 17.6-57 14-78.2l6.4-1a16.8 16.8 0 018.3-29.3zM500 377c2.4.5 4.3.4 5.9 0a8.97 8.97 0 007.3-9.2c0-.5-.4-1-1-1a1 1 0 00-1 1c0 2.3-.8 4.3-2.4 5.7-2 1.7-4.8 2.2-8.4 1.6a1 1 0 00-1.2.8c0 .5.3 1 .8 1.1zm8.8-34.5a2.3 2.3 0 01.7-3.7c2-.8 3.9.2 4 2.4a2 2 0 01-.6 1.5c-1 .9-3.2.7-4.1-.2zM658 165.2c1.8-1.2 2.9-2.7 3.6-4 .6 2.2 1.2 4.5 1.6 6.8 3.2 16.4 4.6 33 5.2 49.6.1 4 .4 8 1 12 .4 3.5-.2 6.6-2.5 9.9l-1.5.3-3.2.5-16.3 1.4c-17.2 1.5-34.3 3-51.5 4.3-20.8 1.5-41.7 2.7-62.5 3.8l-6.6.3c-14.6.8-29.2 1.6-43.7 1.7-12.6.2-25.2-.2-37.9-.5l-14.6-.4c-1.2 0-2.3-.2-3.6-.5l-2-.3.4-1.5a4088.6 4088.6 0 005.2-13.7c4.2-10.6 8.5-21.3 13-32a167.1 167.1 0 0121.1-35.5l.8 1 1 1.3c1 1.2 1.8 2.2 2.3 3.2h0c1.5 3 3.7 5.4 6.6 7.2a22 22 0 0010.3 2.8c8.2.4 14.4-2.5 18.5-8.4 2.3-3.3 4.9-6.5 7.6-9.8h0l.7-.9h0c1.4-1.8 2.1-2.4 3.4-2.4h0c.8 0 1.1.3 1.3.4l.8 1.4h0l1.5 3.8.1.2 1.5 3.6.8 2v.1l.8 2c.6 1.4 1.3 3 2.4 4.5h0c4.8 6.7 13.6 6.9 20.4 2.2h0c2.6-1.8 4.7-4 6.4-6.1l3.9-5.3 1.8-2.7h0c1.5-2 3.4-3.8 6.2-5.3a37.4 37.4 0 011.5 2.3h0a54 54 0 011.6 4.1v.1l2 4.7h0a32 32 0 005 7.5 10 10 0 005.7 3.2c2.1.4 4.4.1 6.6-.4h0c5-1.2 9.1-3.6 12-7h0c2.1-2.3 3.8-4.8 5.5-7.1l1-1.6c.9-1 1.6-2.2 2.2-3.2h0l.7-1c1-1.4 1.8-2.7 2.8-3.8h0c.8-1 1.5-1.1 1.8-1.1.1 0 .5 0 1 .8a16.4 16.4 0 011.2 3l.8 2.2.8 1.9c.7 2 1.6 4.4 2.9 6.5 5.2 8.5 16.1 10 25.6 5 2.8-1.5 5.2-3.6 7.2-5.4l1.6-1.4h0c1.2-1 2.2-2.3 3-3.2h0l.4-.5a12 12 0 012.8-2.6zM469 160l-1.5 2a60.3 60.3 0 002.9 3.6c1 1.3 2.1 2.8 3 4.4 1 2 2.3 3.5 4 4.5 1.8 1 4.1 1.7 7.3 1.9h0c6 .3 10-1.8 12.6-5.6h0c2.4-3.5 5.2-7 7.9-10.2h0l.7-.9h0c1.4-1.7 4-4.9 8.7-4.8 2.3 0 4.2.8 5.6 2 1.3 1.3 2 2.7 2.5 3.8l1.6 3.9.1.2 1.4 3.5h0l.9 2.2v.2l.7 1.7c.5 1.3 1 2.3 1.7 3.2 2.1 3 6.5 3.9 11.2.7 1.9-1.4 3.5-3 5-5h0c1.3-1.4 2.2-2.8 3.3-4.4l2.2-3.2c2.6-3.5 6-6.5 11.5-8.6 1.4-.6 3 0 4 1.2l1 1.4a90.2 90.2 0 012.6 4l1.8 4.5.1.2 1.7 4.2c1.1 2.2 2.4 4.2 4 5.9h0c.6.8 1.2 1 2 1.2.7.1 2 0 3.8-.4 3.8-.9 6.6-2.6 8.5-4.8 1.8-2 3.3-4.2 5-6.5l1.2-1.8h0a74.6 74.6 0 002.7-4c1-1.4 2-3 3.2-4.4a9 9 0 017.1-3.5c2.9.2 5.2 1.8 6.6 4.3h0a22.4 22.4 0 011.7 4h0l.7 1.8h0l1 2.7c.7 1.8 1.2 3.3 2.2 4.9h0c2.8 4.6 9.4 6.4 16.8 2.5h0c2-1 3.5-2.4 5.3-4h0l2.3-2c.7-.6 1.3-1.3 2-2.2h0l.6-.7c1-1.2 2.3-2.6 4.3-3.9h0c.5-.3 1-.9 1.5-2l.6-1.3a262.8 262.8 0 011.5-2.9h0a6 6 0 011.5-1.6l.1-.1c-.6-3.5-2.7-6.4-4.9-9.3l-1.6-2.3a92.4 92.4 0 00-20.4-22.9c-12-9.1-26.6-15-44.6-14.7-10.4.2-21 2-31.2 4-35.2 7-62.6 22.4-82.1 45.7-2.1 2.5-4 5.1-5.9 7.7zm274.8 24a14 14 0 011.3 24.5l6.2 1.4-3.3 14.9c-7.1 33 3.4 63 10.3 78.1 4.2 9.3 8.8 16.6 13 22.2a71.6 71.6 0 0123.3-12.4c-3-1.8-5.2-4.3-7-7-3.3-4.6-5-9.3-5-14.5.2-4.2.6-8.4 1.4-12.6.1-.7-.2-1.1-1-1.5a6.3 6.3 0 01-3.5-5.5c-.2-2.4.9-4.5 2.3-6.4 1.8-2.4 4.2-4.8 6.7-7.4 3.1-3.1 6.3-6.4 8.3-9.5.3-.6.7-2.4 1-4.4h0a41 41 0 01-.7-3.9 787.5 787.5 0 01-19.6-5.9c-3.3-1-3.3-6.2 1.4-5.1 4.8 1 8.6 2.3 11.1 3.1l2.6 1 1.4.5 2 .7h0l2 .7.1-.3.1-.3a18 18 0 013.6-8.3c2.6-3.7 6.2-6 10.2-8 2.8-1.2 5.8-2 8.9-2.1l4.3-.1a237.6 237.6 0 001.9 0h.2c0-1.3.6-2.4 1.8-3.1 1.2-.7 2.4-.6 3.5 0 1.2.6 1.8 1.7 1.8 3v.8a15 15 0 017.9 3.7c2.2 2 4.4 4 6 6.6 1.6 2.4 2.6 5 3 7.8l1 8-.1 3.4v.2l-.1 1.8c0 .8 0 1.4-.2 2.6l-.3 1.4h0l-.2.6-1.1 1v1.5c.3 1.6 3.5 6 5.2 8.3.5.7 1 1.2 1 1.5l5.7 8.6c1.8 2.6 2.7 5.5 3.3 8.6.5 2.7.6 14.3-5.5 24a11.3 11.3 0 01-5.8 5.1 16 16 0 01-9.3-.7c-1.6-.6-2.9-1.7-3.9-3l-.7.5h0l-2.1 1.7a26 26 0 01-3.6 2.8 76.3 76.3 0 0128.5 16.5 127.4 127.4 0 0043.6-74.8l2.3-15.1 5.7.9a14 14 0 1118.6 2.9l5.9.9-2.4 15c-6.5 42.6-32.3 72.9-47.1 87.1-2.3 2.2-4.6 4.4-7.1 6.5a92.3 92.3 0 015.7 10.5l24.1 72.9-178.9 15.4-2.3-55.8L737 376s4-13.2 13.6-27.8c-7.8-9.5-14.6-21-19.5-31.7-8.7-18.6-22-56.1-12.8-98.2l3.3-15 5 1.2a14 14 0 0117.3-20.5zm56 81.9a2 2 0 01-1-1.1l-.2-1.5c.1-1.3 1.3-2.3 2.9-2.3 1.6 0 2.7 1.7 2 3.2-.2.7-1 1.3-2 1.6a3 3 0 01-1.2.2l-.5-.1zm.9 24.4c-1.8 2.5-5.7 5.7-14.1 5.4-.5 0-1 .4-1 .9l.3.6.6.2c2.1.1 4 0 5.6-.3 4.5-.8 7.3-2.8 9-4.7 2.1-2.4 2.6-4.6 2.6-4.7a.8.8 0 00-.7-1 .8.8 0 00-1 .7c0 .1-.3 1.4-1.3 3zM773 125.6a3.9 3.9 0 10-7.7-1 3.9 3.9 0 007.7 1zm78.1-25.9l-24.2-3-3.3 20.1 25.3 4 2.2-21.1zm6.7.4l24.3 3-2.2 21-25.3-3.9 3.2-20zm27.6 64.6c3.8-.9 8.3-3.4 8.8-8.3.2-1.6-.2-4-.6-5.6-.7-2.4-3.1-5.6-8.2-7-3.2-.8-6-.6-8.7 1.4l-.2.2c-3.1 2.5-5.3 5-5 10.9 0 .7.3 1.5.6 2.2l.2.7a8.3 8.3 0 002.3 3.5l-64.2-12.2c3.2-1 6.3-2.6 7.4-5.5a20 20 0 001.1-3.6l.3-1c.9-3.7-1-6.4-3.4-8.9a7.8 7.8 0 00-7-2.1h-.9l-.5.2h0c-2 .2-3.9.4-5.6 1.1-4.3 1.7-6.8 8-6.2 11.7.3 1.5.8 3 1.6 4.3.3.6.8 1 1.2 1.5l-73.8-14-8 44.4 231.7 43.2 7-43.8-70-13.3zm-133.8 3.4l-15.8-2.8h0l1-5.3 15.7 2.8h0l-1 5.3zm36.8 6.7l-15.8-2.9h0l1-5.3 15.8 2.9h0l-1 5.3zm36.9 6.6l-15.8-2.8h0l1-5.3 15.7 2.8h0l-1 5.3zm36.8 6.7h0l-15.8-2.9 1-5.2h0l15.7 2.8-.9 5.3zm36.8 6.6h0l-15.8-2.8 1-5.3h0l15.8 2.8-1 5.3zm36.9 6.6l-15.8-2.8h0l1-5.3 15.7 2.8h0l-1 5.3zM300 217.1a12 12 0 1117.6 9.3l10.6-1c2.5 24.3-4.9 63-16 84.6-12 23.8-29.4 37.7-49.8 49 8.2 9 12.5 17 12.5 17l19.6 62.4-154.6 3.2 5.7-50.2s2-9.2 7.6-20.3a108.2 108.2 0 01-50.2-39.4 181 181 0 01-27.3-81.8l10.7-.3a12 12 0 119.2-.4l11.4-.4a151 151 0 0021.7 64.9l.1.2c11.2 16.4 26 24.7 44.6 31.5 5-4 11-7.4 17.7-9.7-1.5-.9-3-1.9-4.3-3l-1.9-1.5-2-1.6a29 29 0 01-.8-.8h-.3a16 16 0 01-1.6.8l-1.7.6-3.5 1.5c-1.5.7-2.7.1-3.3-1.4h0a71.2 71.2 0 01-3.6-9.7c-.6-2.6-.8-5.4-1-8.1v-1c-.5-5.2.1-10.5 1-15.8l.1-.2s0 0 0 0v-.2s0 0 0 0h-.2c-3 0-4.8-2.2-4.4-5.2a81 81 0 018.8-28.2c1.6-2.7 3.5-4.8 5.8-6.3l-2.4-2.1c-.6-.6-.7-1.5-.1-2.2.5-.6 1.5-.6 2.1 0l3.2 2.8c2-.8 4-1.3 6.3-1.5a42 42 0 0129.8 9.7l1.1 1.5c.6 1 .4 2-.5 3h-.1l-.6.6 3 3.8v.1l1.5 1.9h0l.1.2h0l2 3 2 3.2c2.6 3.9 5.1 7.7 8 11.4a9.1 9.1 0 012.2 5.7c0 2.1-1 3.8-2.9 5-.6.4-.8.7-.7 1.4.8 3.7 1.3 7.5 1.5 11.3.3 4.6-1 9-3.6 13-1.7 2.7-3.6 5.1-6.3 7 3.8.8 7.4 2 10.8 3.6 22.4-10.8 39.2-21.2 49.6-42.1l.1-.3a151.1 151.1 0 0012.8-67.2l11.3-1.1a12 12 0 01-8.4-10.2zm-66.7 97l-.1.4-.5.2a6.4 6.4 0 01-6.7-6c0-.4.3-.7.6-.7.4 0 .7.2.7.6.1 2.8 2.5 5 5.4 4.8.3 0 .6.3.6.6zM222 286.4a2 2 0 00-3.3-.8c-1.5 1.3-1.3 3.3.5 4.2.4.2 1 .2 1.4 0 1-.4 1.8-2.3 1.4-3.4zm725.4 96.4h-.1.1zm-294.7 7.7c-2-5.2-2.5-10.8-3.6-16.2-.2-1 0-2 0-3 .4-2 1.4-3.7 3.5-4.3a5 5 0 015.7 1.6l5.9 6.9c.7-2.2 1.1-4 1.8-5.7 1-3 1.9-6.3 5.5-6.8 3.4-.5 5.3 2 7.1 4.4 1.6 2 3 4.2 5.2 7.2.7-3.3.9-5.7 1.7-8 1-2.7 2-5.5 3.8-7.7 2-2.6 4.7-2.5 7.4-.6.8.6 1.5 1.3 2.1 2 5.6 7.7 7.7 16.1 5.7 25.4-1 4.3-3.5 7.7-7 10.4a44 44 0 01-13.9 7c-11.6 2.8-26.3-.3-31-12.6zM394 56c3.1 5.7 7.4 10.5 11.8 15.5l6.1 7.1-1.3.3h0l-2.4.5-12 1.4h0l-18 2.2c-.7.1-1.3.4-2.2.8l-1.9.8c6.8 4.5 13.7 8.1 20.6 11.6 5.6 2.9 11.2 5.8 16.6 9.1l-6.5 8.2a9319.5 9319.5 0 00-6 7.6c-1 1.3-2.2 2.6-3.1 4-1.6 2.1-1.5 3.2 0 5.4 1.4 2 2.4 2.5 5 1.6 2-.6 3.8-1.3 5.6-2.2l47.9-25.2 1.2-.7 1.5-.8c1.5-.8 2.1-1.9 2-3.5-.5-7-1-13.8-1.3-20.7-.1-1.8-1.4-2.3-2.6-2.8h-.3c-2.3-1-4.6-1.8-7-2.6h0l-10.5-3.9-24-9h0l-14-5.3-.6-.3c-1.4-.6-3-1.2-4.6.9zm231.6 23.6c4.4 2.5 7.1 6.4 9 11l.1 1.7h0l.2 3.3a12.2 12.2 0 01-10 11.6c-6 1-10.9-1-14.6-5.7-1.2-1.5-2.1-3.1-3.1-4.7l-1.4-2.2c-.5-6.4 2-11.4 7.1-14.8 4.1-2.6 8.4-2.6 12.7-.2zm-98 22.9c.2-2.7-1-5.1-2.4-7.2-2-3.2-4.6-6.2-8.7-7-4.4-.8-8.2.2-11.3 3.6-2.6 3-4.8 6.3-4.7 10.5v2.6l2.2 2.4c1.4 1.6 2.8 3.3 4.3 4.8 4 3.7 10.7 4.1 15.2 1 2.4-1.6 3.9-3.9 4.6-6.7l.7-3.4.1-.6zm-200.4 241c1.6 6 4.6 11.3 9.7 15.1.9.7 7.5 5.3 17.4 8.6a85 85 0 00-7 18 10.8 10.8 0 10-.4 3.2c-1.9 8.7-2.4 17.6-2.4 26.9h.3c2.5.5 8 1.4 9.7-.4 1.1-1.3 1-6.5 1-11-.2-3-.2-5.8 0-7.1a232 232 0 016.5-25.6l.1-.4.4-1.3c12 2.6 20.6 2 20.6 2l.2-.1.4-.3c4.3-1.2 7.7-3.8 11-6.7a17 17 0 004.3-5.7c1.9-4 2.7-8.1 2.8-12.4v-.2c.2-2.8.3-5.5-.8-8.2-1-2.2-2-2.9-4.4-2.3-3 .8-5 2.6-6.3 5.2l-1.2 2.3-2.3 4.4a6 6 0 01-4 3c-1-1.5-1-1.7-1-4l.3-3.9h0l.4-4.8c.1-2.5 0-4.9-1.1-7.1-1.7-3.7-4.8-4.2-7.4-1.1a21.3 21.3 0 00-2.9 4.8l-3 7h0l-1.5 3.7a5.9 5.9 0 01-2.8 3.2c-1.4.7-2.6.4-3.2-1-.5-1-.7-2.2-.8-3.3l-.5-7.2h0c0-2.2-.2-4.3-.4-6.5 0-1.6-.2-3.2-.6-4.7-.8-2.8-3.5-3.9-6-2.5l-1.7 1.5a13.7 13.7 0 00-3.5 6.3l-2.5 10.2c-.3 1.2-.6 2.4-2.5 2.5l-.5-.8-1-2a244.5 244.5 0 01-.8-9.6v-4.8c-.1-1-.2-2.1-.5-3.1-.5-1.6-1.5-2.2-3-1.9-2 .5-4.1 1.1-5.6 2.8-2.4 2.5-4 5.5-4.6 9-.6 3.6.2 7 1 10.3zM672.9 57.8c5-.8 10-1.4 14.9-.2 5 1.4 7.9 5.6 8.8 10.5.9 4.3-1.5 9.3-4.4 12.3-3 3-7 2.5-8.5-1.7-1.5-4 6.3-7.2 8.9-8.1 6-2.1 13-2.5 18.8.2 14 6.6 13.8 30.8.5 38-4 2-9 1.5-8.9-4 .3-8.5 8.3-15.8 15.3-19.5 11.8-6 28.5-5.3 36.5 6.4.6 1 2.3 0 1.6-1-10.2-14.9-32.2-13.3-45.1-3-5.2 4-11 11.8-10 18.9.6 4.6 4.9 6 9 4.9 5.6-1.6 9.6-6.7 11.7-12 3-7.4 2.1-16.9-2.1-23.7-7-11-23-10.7-33.1-4.6-2.6 1.6-6.1 4.7-5 8.2 1 2.3 3.2 4.8 5.7 5 3.1.3 5.7-2 7.4-4.3 4.6-6.3 5-14.6-.3-20.6-5.4-6-15.1-4.7-22.2-3.5-1.2.2-.7 2 .5 1.8zM344.3 165.5c-1.9 0-4-.4-5-1.9-.9-1.1-1-1.4-1.3-1.9h0l-.3-.5-.6-1.5-78.3 8.6a9 9 0 010 2.6c-.5 2.6-3.8 4.5-6 4.6-2 0-4-.4-5-1.9-1-1.1-1-1.4-1.3-2l-.3-.4-.6-1.5-6.6.7h0l-17.8 2v2.6c-.5 2.6-3.8 4.5-6 4.6-2 0-4-.4-5-1.9a13.3 13.3 0 01-2.2-3.9l-65 7.2v2.6c-.5 2.6-3.8 4.6-6 4.6-2 0-4-.3-5-1.8a14 14 0 01-1.3-2h0l-.3-.5-.6-1.4-22.9 2.5a9 9 0 010 2.6c-.5 2.6-3.8 4.5-6 4.6-2 0-4-.4-5-1.9-1-1.1-1-1.4-1.3-1.9l-.3-.5-.6-1.5-65.1 7.1v2.6c-.5 2.6-3.8 4.6-6 4.6-2 0-4-.3-5-1.9-1-1.1-1-1.4-1.3-1.9l-.3-.5-.6-1.4L1 196.4c2.2 31.1 37 56.4 68.4 36.3 15.5-10 29.4-7.3 43.3 2.7l5.6 3.8a56.9 56.9 0 0056.4 5.2c6.5-2.7 12.7-6.2 18.9-9.6l1.8-1c17.9-10 37-15.1 57.6-14.4 13.2.5 25.7-2 37.4-8.2 15-7.9 31.2-10 48-9.3l6.7.4c5.5.3 11 .5 16.5.5 12.1 0 21.3-6.5 24.5-16.8 3-9.8-1.5-25-9.7-30.5l-5.7.6-20.4 2.2v2.6c-.5 2.6-3.7 4.5-6 4.6zm-4-3c.8 1.2 2.4 1.6 3.8 1.5 1.8 0 4.3-1.5 4.7-3.5v-2.3c-.2-1.7-2.1-4.3-4-4.4-.9-.1-1.7 0-2.5.2l-.6.1c-1.1.2-2 .8-2.5 2-.7 1.5-1 3-.2 4.6l.3.4h0l1 1.5zm-91.4 9.9c.8 1 2.3 1.4 3.7 1.3 1.7 0 4-1.4 4.4-3.3v-2.2c-.2-1.6-2-4-3.9-4.2-.7 0-1.5 0-2.3.2l-.6.2a3 3 0 00-2.3 1.8c-.6 1.4-1 2.9-.1 4.4l.2.3.9 1.5zm-34 5.2c-1.2 0-2.7-.2-3.5-1.3l-.8-1.3-.3-.4c-.8-1.4-.4-2.8.1-4.2a3 3 0 012.3-1.7l.6-.2a8 8 0 012.2-.2c1.8.2 3.5 2.5 3.7 4v2.1c-.3 1.8-2.6 3.2-4.2 3.2zm-81.8 7.3c.8 1.1 2.2 1.4 3.6 1.4 1.6 0 4-1.4 4.3-3.3v-2.1c-.2-1.6-2-4-3.8-4.1-.7-.1-1.5 0-2.2.2l-.6.1a3 3 0 00-2.4 1.8c-.5 1.4-.9 2.8 0 4.3l.1.4 1 1.3zm-32.5 5.5c-1.4 0-3-.3-3.8-1.4a9.7 9.7 0 01-1.1-1.8c-.9-1.5-.5-3 0-4.4a3 3 0 012.5-2h.6l2.4-.3c1.8.2 3.7 2.7 4 4.3l-.1 2.2c-.4 2-2.8 3.4-4.5 3.4zm-82.2 7.3c.9 1.2 2.5 1.5 3.9 1.4 1.8 0 4.3-1.5 4.7-3.5v-2.3c-.3-1.7-2.2-4.3-4.1-4.4-.8 0-1.6 0-2.4.2l-.7.1c-1 .3-2 .9-2.5 2-.6 1.5-1 3 0 4.6l.1.4 1 1.5zM352.1 138c-.3-2.1 1.3-4 3.4-4.3a3.9 3.9 0 11-3.4 4.3zm-111.4-.4l61-5.7-1.5-12.6-59.5 5.5v12.8zm-11.2 14v-.9l-.3-2c-.6-5.9-4.5-23.5-4.9-24-1.6-2.2-4.7-2.3-7.2-2.4a950.3 950.3 0 00-57.6 6l-6.7.7c-4.8.4-9.4.7-14.2 2-1.8.4-4.2.5-6.6.6-4.2.2-8.7.4-11.3 2.3-4 3-2 13.6-.4 21.4a70 70 0 011 6.2l.1 1.4c.3 4 .7 10 6.2 9.3 7.5-1 13.4-1.6 21-2.4 5.3-.5 10.7-1 16-1.7 8.9-1 17.7-2 26.6-2.5l10.3-1.3 15.7-1.9c5.4-.6 13.3-2 12.6-8v-.8l-.3-2zm-7.9-11l-46.2 4.6v-12.8l43.8-4.3 2.4 12.5zm-50.7 5.1l-45.2 5.4-2.1-12.5 47-5.6.3 12.7zM6.5 176.2v-.7l-.3-2-.7-6.6c-.9-7.6-2-17.7-1.9-18 1.1-2.6 4.2-3.4 6.6-4 5-1.2 32.3-4 48.9-5.6h0l8.6-.9 7-.9c10.9-1.4 28.4-3.7 32-2.1 5.1 2.2 6.2 15 6.9 22.8l.4 4 .2 1.5c.6 4 1.5 10-4 10.4-7.6.6-15.4 1.5-22.8 2.4-5.4.7-10.8 1.3-16.3 1.8-8.8 1-17.6 1.9-26.3 3.2-1.8.3-7.5 1-14 1.6l-10 1c-5.4.7-13.3 1-14-5.1v-.3l-.3-2.5zm100-23l-44.4 4.4-1.8-12.6 43.7-4.3 2.5 12.5zm-49 4.9l-46 5.5L9.4 151l46-5.5 2.2 12.6z" stroke="#59C8FF"/>
    </g>
  </g>
  <defs>
    <linearGradient id="paint0_linear" x1="496" y1="381" x2="496" y2="445.5" gradientUnits="userSpaceOnUse">
      <stop/>
      <stop offset="1" stop-opacity="0"/>
    </linearGradient>
  </defs>
</svg>
